<svg xmlns="http://www.w3.org/2000/svg" xmlns:xlink="http://www.w3.org/1999/xlink" width="1200" height="1200" viewBox="0 0 512 512" fill="none" class="h-full w-full" id="iconWithBackground"><rect id="r4" width="512" height="512" x="0" y="0" rx="80" fill="url(#linearGradient-iconWithBackground)" stroke="#000000" stroke-width="0" stroke-opacity="100%" paint-order="stroke"/><defs><linearGradient id="linearGradient-iconWithBackground" gradientUnits="userSpaceOnUse" gradientTransform="rotate(0)" style="transform-origin:center center"><stop stop-color="#020817"/><stop offset="1" stop-color="#020817"/></linearGradient><radialGradient id="glare" cx="0" cy="0" r="1" gradientUnits="userSpaceOnUse" gradientTransform="translate(256) rotate(90) scale(512)"><stop stop-color="white"/><stop offset="1" stop-color="white" stop-opacity="0"/></radialGradient><clipPath id="clip"><use xlink:href="#r4"/></clipPath></defs><svg xmlns="http://www.w3.org/2000/svg" width="340" height="340" viewBox="0 0 24 24" x="86" y="86"><path fill="#ffffff" d="M14.192 21q-.394 0-.658-.264t-.265-.66V15.25q0-.354.206-.598t.504-.29l.56 1.138h1.269l-.635-1.27h1.27l.634 1.27h1.27l-.635-1.27h1.269l.634 1.27h1.27l-.635-1.27h.558q.394 0 .658.265t.265.659v4.923q0 .394-.265.659t-.658.264h-6.616Zm-.038-.885h6.692v-3.73h-6.692v3.73ZM12 12Zm-.027-2.5q-1.046 0-1.773.727q-.727.727-.727 1.773q0 .796.415 1.408q.416.611 1.112.904v-1.135q-.238-.2-.383-.532q-.144-.332-.144-.645q0-.625.438-1.063t1.062-.437q.625 0 1.06.438q.434.437.434 1.062h1.006q0-1.046-.727-1.773q-.727-.727-1.773-.727ZM10.135 21l-.362-2.892q-.479-.145-1.036-.454q-.556-.31-.947-.664l-2.667 1.135l-1.865-3.25l2.305-1.738q-.044-.272-.073-.56q-.028-.287-.028-.558q0-.252.028-.53t.073-.626L3.258 9.125l1.865-3.212L7.771 7.03q.448-.373.97-.673q.52-.3 1.013-.464L10.134 3h3.731l.362 2.912q.575.201 1.016.463q.442.262.909.654l2.725-1.116l1.865 3.212l-2.382 1.796q.082.31.092.568q.01.26.01.511h-1.039q-.006-.437-.056-.77q-.05-.334-.15-.697l2.227-1.683l-.994-1.7l-2.552 1.07q-.454-.499-1.193-.934t-1.4-.578L13 4h-1.994l-.312 2.688q-.756.162-1.39.52q-.633.36-1.26.986L5.55 7.15l-.994 1.7l2.169 1.62q-.125.336-.175.73q-.05.394-.05.82q0 .38.05.755t.156.73l-2.15 1.645l.994 1.7l2.475-1.05q.6.606 1.36 1.002q.76.396 1.615.579V21h-.865Z"/></svg></svg>